PathFileType	4	(X/Y/Z)	RBDS021\RBDS021runT45.trc
DataRate	CameraRate	NumFrames	NumMarkers	Units	OrigDataRate	OrigDataStartFrame	OrigNumFrames
150.000000	150.000000	6	33	mm	150.000000	0	4500
Frame#	Time	L.ASIS			L.Heel.Bottom			L.Heel.Lateral			L.Heel.Top			L.Iliac.Crest			L.MT1			L.MT5			L.PSIS			L.Shank.Bottom.Lateral			L.Shank.Bottom.Medial			L.Shank.Top.Lateral			L.Shank.Top.Medial			L.Thigh.Bottom.Lateral			L.Thigh.Bottom.Medial			L.Thigh.Top.Lateral			L.Thigh.Top.Medial			R.ASIS			R.ASY			R.Heel.Bottom			R.Heel.Lateral			R.Heel.Top			R.Iliac.Crest			R.MT1			R.MT5			R.PSIS			R.Shank.Bottom.Lateral			R.Shank.Bottom.Medial			R.Shank.Top.Lateral			R.Shank.Top.Medial			R.Thigh.Bottom.Lateral			R.Thigh.Bottom.Medial			R.Thigh.Top.Lateral			R.Thigh.Top.Medial			
		X1	Y1	Z1	X2	Y2	Z2	X3	Y3	Z3	X4	Y4	Z4	X5	Y5	Z5	X6	Y6	Z6	X7	Y7	Z7	X8	Y8	Z8	X9	Y9	Z9	X10	Y10	Z10	X11	Y11	Z11	X12	Y12	Z12	X13	Y13	Z13	X14	Y14	Z14	X15	Y15	Z15	X16	Y16	Z16	X17	Y17	Z17	X18	Y18	Z18	X19	Y19	Z19	X20	Y20	Z20	X21	Y21	Z21	X22	Y22	Z22	X23	Y23	Z23	X24	Y24	Z24	X25	Y25	Z25	X26	Y26	Z26	X27	Y27	Z27	X28	Y28	Z28	X29	Y29	Z29	X30	Y30	Z30	X31	Y31	Z31	X32	Y32	Z32	X33	Y33	Z33	

1	0	2126.247184179892	908.5432734175558	920.4380432210302	1771.944045376578	506.1690172861857	981.799575913047	1787.341244421412	483.4113128166244	931.5243027357136	1817.606723271635	496.2420280196773	975.0240914770137	2069.915873998751	985.4415443774828	861.4722933258364	1780.922569653491	287.9540849894985	988.9265905521743	1764.529286426278	334.3991670311336	885.4154454733501	1945.938283507026	969.1341810435808	970.2684146711439	1906.775316698415	447.4154830457832	900.0099078315209	1909.091876703487	484.0939917491708	941.6956051868086	1983.831324464484	462.3216622307515	883.5227498378019	1986.702630268788	497.7992602854152	924.2141660615238	2169.735597876391	580.5758119951267	845.1414324774024	2110.553905592573	559.1222083358542	878.5643543167995	2122.83213701123	679.0493281540884	829.786643685734	2065.029607260288	658.167852896746	860.6373206897925	2115.235252854004	932.2215132441538	1136.431180821638	2020.642386883857	72.8904560304931	1051.456172072856	1855.15972519456	46.82443096436786	968.3943361162708	1864.074233743696	59.28046926548151	1022.398659798033	1867.727522819876	89.49534098336218	977.1893989516619	2054.51897197789	979.2284581673404	1180.107176349217	2062.124631947596	36.06433226245365	1010.570259851249	1995.024363951435	35.07714661797853	1106.631073127568	1941.182732230382	970.3441469802639	1045.083587029804	1943.144744581704	170.854789459849	1074.77872951544	1926.938025989486	196.1399343792436	1032.842012301923	1974.119488473697	243.8237826400495	1104.825100088563	1952.636542988988	266.9754382612202	1061.594335250612	2078.984044906106	580.9484908616084	1179.430858395066	2021.250056746272	568.1228030885597	1136.71506880566	2041.753291813496	683.4095957792257	1193.579006025498	1988.342319885238	670.9859529990803	1151.519647234752	
2	0.006666666666666667	2125.323281231676	911.6142409421848	918.3188638636262	1785.350498581878	488.4189176332788	976.5537447930421	1803.388665314733	466.4743423020362	926.9163254752018	1831.640117959062	481.9246665440285	970.7363215958287	2063.386097998434	988.4208899578966	860.5146682754632	1810.626832489171	272.6152075461649	988.0814754060031	1792.946056946389	316.135186037997	883.4357542510303	1945.211934569007	971.1803664417257	971.2763605025477	1925.904407678105	439.4517986135294	898.29637046185	1924.667139099167	476.3902223880381	939.5846765805404	2001.949031714148	459.4611820253099	883.281832529522	2001.383621659385	495.3364587955944	923.2877895358039	2181.507159053341	590.8110703733489	847.1461843256465	2123.489370166852	566.5938918956543	880.3325008804341	2129.982037374489	686.2480082123953	830.9515157584974	2073.25617852233	662.6289003738869	861.4359839655611	2115.663841115351	930.8755978515375	1135.836460351922	1990.760372344699	73.09981216658967	1052.023104548744	1824.680532816575	50.63764427895119	968.0915809534159	1833.728498313466	62.44332367973008	1022.302743596767	1837.796509578011	93.21960241593591	977.3663020036054	2054.083094975229	981.0472619647759	1179.522610726537	2031.087225817421	36.34043522225345	1010.78806318331	1964.110601013579	35.10348415014985	1106.349190783623	1941.453482861114	971.6416576334854	1046.004345529083	1915.325528925207	173.7890358277464	1074.658175494033	1900.045594491112	199.4700614581378	1032.689682192455	1948.2724017673	245.7418981776036	1104.879427311707	1927.932986630979	269.4459242051417	1061.458462579216	2067.346391031656	579.0529967873006	1180.193324732578	2007.629176770293	568.2411168598436	1139.78632574006	2034.330367953914	682.9887987888054	1194.271533012102	1979.521960685556	672.3856106710751	1153.703855187338	
3	0.01333333333333333	2124.556747132407	914.9443936538718	916.2174170806488	1799.225653113092	470.2737211646715	971.7027552029458	1819.809581267433	449.2814293473479	922.6518270175239	1846.033032912472	467.2523503718921	966.7806090752969	2057.228031707175	991.6300305065458	859.5589985223739	1840.802157536067	257.3026713196662	987.167351561111	1821.721873170209	298.0160029313694	881.4938962511128	1944.622112642304	973.3386043191747	972.2928361451508	1945.138185091528	431.333819540588	896.7480230416718	1940.353536362956	468.408340190202	937.6401578483005	2019.973219793861	456.4686307929949	883.1404915200445	2015.971779581919	492.6180938642094	922.4791619272827	2193.049241735227	601.1586944545062	849.1373361863428	2136.155090444075	574.2614544760042	882.0439536643115	2137.075816116679	693.6284987551962	832.0638878973482	2081.399535957486	667.3518219386817	862.1221892776621	2116.267966367798	929.6978494138585	1135.164681616909	1960.984915187063	73.28896936512656	1052.726985591113	1794.443005111799	54.91045814459311	967.9828950238721	1803.618138580057	65.96731513761857	1022.392600360959	1808.181503612624	97.31866216708566	977.7875930296019	2053.973219592818	982.9833121547271	1178.934025293986	2000.062213960337	36.62538233807145	1011.035873633959	1933.183824885212	35.14889006811419	1106.124857520585	1941.860445147758	973.0200750374166	1046.957907383848	1887.660894999248	176.9865331384472	1074.706416347687	1873.306509282567	203.0075382219508	1032.677244877596	1922.491434277581	247.9783680265829	1105.059630462832	1903.282804799017	272.1715394907924	1061.423204604194	2055.597589056233	577.5405224423009	1180.930346793649	1994.017204980031	568.8094332943796	1142.685968235126	2026.883350411634	682.8866863986702	1194.895123230301	1970.75735144144	674.1712218291893	1155.72309729373	
4	0.02	2124.108134971078	918.7661264700957	914.1741535774537	1814.034727763988	451.3437659543387	967.6228569227758	1836.965766883409	431.5643545239652	919.0577231832403	1861.14530117145	451.8736186579816	963.4763625492672	2051.791686172207	995.288504856	858.6267165496655	1871.928439374301	242.0304804413991	986.1081278883612	1851.201991670275	280.1458501811053	879.6180012403353	1944.304502258766	975.7258779558971	973.3350961120329	1964.587633422523	422.8957661227003	895.5182177944814	1956.286016661742	459.8781939687761	936.029645796538	2037.83768248879	453.2015429949563	883.1879195941767	2030.420928205737	489.3958379157144	921.9082306604595	2204.181480167896	611.7254958713098	851.1044328014042	2148.332985440133	582.2969358732971	883.6405653683519	2144.081536921471	701.3569634503849	833.0896977352495	2089.401226791857	672.5660419728031	862.6029984449216	2117.201946122849	928.8480734877739	1134.366604830942	1931.455708036169	73.43040048871333	1053.714353480303	1764.695403049225	60.05644791937106	968.31361618748	1773.999622559385	70.17351699642117	1022.902411753237	1779.204692437716	102.1241616043439	978.7303595204122	2054.511502236436	985.1280563470751	1178.334225780659	1969.092553138089	36.90286210382972	1011.370410773589	1902.289725265496	35.20516108642698	1106.050832151856	1942.544259860388	974.5687274237522	1047.98243445532	1860.318783403571	180.6750539140204	1075.109685304401	1846.871646519364	206.9233520946179	1032.965463486275	1896.849934802782	250.8258909590103	1105.498478227939	1878.728205378601	275.3808105763003	1061.601835771243	2043.603729973298	576.8037651617709	1181.591386992633	1980.415243342016	570.2898785929978	1145.212339311743	2019.374005079875	683.4268351381256	1195.37207940983	1962.109892993423	676.7343468354139	1157.391908272659	
5	0.02666666666666667	2124.11372689075	923.2343747752184	912.2394289592543	1830.167445081096	431.3523128121968	964.6191071228802	1855.14917524378	413.1336681227514	916.3985114575347	1877.27863803064	435.5334691955931	961.0833286960327	2047.357819334884	999.5577243314048	857.7453672587599	1904.372552561725	226.8522372193029	984.8434767870361	1881.633302146075	262.6326655401197	877.8337678963899	1944.372187810637	978.4372591401142	974.416884371047	1984.335375108113	414.0144688848594	894.7281706271332	1972.584103081952	450.5941589050943	934.8949876414381	2055.48828497906	449.5405501314232	883.4967330310403	2044.70921107522	485.4661137499287	921.6792795615889	2214.751952545379	622.5597643722998	853.0324093875004	2159.839401247384	590.798277216407	885.0668036114344	2150.964885229179	709.5354946687952	834.0070508258494	2097.20362162922	678.4232147004102	862.8104073399634	2118.578449470599	928.4626545094164	1133.418252087071	1902.336104292459	73.51045464013953	1055.106783481185	1735.70710922657	66.41913618122669	969.3135533153852	1745.150537230958	75.32998369836	1024.04953400528	1751.196583696742	107.9064287471781	980.4422982754562	2055.963904243743	987.5422706121803	1177.715802960428	1938.262622026153	37.16209625585898	1011.845902717611	1871.523903584419	35.27589699891517	1106.216857770549	1943.619518531219	976.3681843887063	1049.109678551225	1833.495251577652	185.0299491616035	1076.03411939343	1820.915464094901	211.3428863432226	1033.700211277533	1871.459654481972	254.5196290314945	1106.310357861378	1854.344791128934	279.2524242551652	1062.095887259717	2031.273743305167	577.1818902580376	1182.120922958108	1966.850970583865	573.0760433655054	1147.181981568228	2011.786580398524	684.8834306471163	1195.639335989181	1953.653308532404	680.4023522395239	1158.556669430388	
6	0.03333333333333333	2124.675025765139	928.4057963316428	910.4753108216611	1847.928549095386	410.1627454044864	962.8977550593825	1874.57774612624	393.8961993688844	914.8522484828698	1894.671207962884	418.0962181975562	959.7775150838409	2044.117927004188	1004.524809939185	856.9515032067596	1938.367330506423	211.8744901321942	983.3398722735825	1913.156975922344	245.5880711990778	876.1664879033466	1944.908067803759	981.5386262919311	975.5468907718061	2004.438820657968	404.6183352441056	894.4547139530368	1989.355912389407	440.4304902223263	934.3396688677885	2072.89562265813	445.3923211775651	884.1138739310973	2058.852669076011	480.6796448277333	921.8703676183668	2224.640927669881	633.6294195830388	854.9000760254706	2170.531051111872	599.7647358685815	886.2734220511452	2157.684278489554	718.1786007301195	834.8091335686483	2104.746204653359	684.9714502056171	862.7117393089281	2120.4567738134	928.6445324383612	1132.32779060821	1873.805610510012	73.54596735607775	1056.991306319778	1707.759385227235	74.25498495736339	971.1808194314293	1717.359140752912	81.64320787428494	1026.018982685574	1724.481460949553	114.8621052588966	983.121791236253	2058.520498570607	990.2493093100089	1177.069795473019	1907.69713913234	37.4100929535914	1012.51485839364	1841.032151456609	35.39379061709035	1106.706664860883	1945.166717076408	978.4880220200532	1050.3621811749	1807.409879917455	190.1667998806338	1077.613139169521	1795.631728732785	216.3425756059411	1035.001929306903	1846.473342749837	259.2253637531311	1107.581739817831	1830.2451045413	283.9080179386197	1062.987642250242	2018.574741073787	578.9397021962488	1182.459759217473	1953.386436824973	577.4670877207176	1148.441698802724	2004.135546731299	687.4626467446437	1195.65428497368	1945.476615738693	685.4147435203442	1159.108700354469	
